<svg width="28" height="28" viewBox="0 0 28 28" fill="none" xmlns="http://www.w3.org/2000/svg">
<path d="M13.6068 17.7033L5.07103 11.8995M17.7037 13.6063L11.8999 5.07051M11.5588 21.1178L4.72976 18.3868M21.1184 11.5578L18.3874 4.72875M23.1435 6.8824C23.1435 6.8824 18.4384 4.66207 16.4863 3.74855C15.7933 3.42399 14.98 3.40395 14.3071 3.76764C14.3013 3.7705 14.2947 3.77432 14.2889 3.77718L11.8194 5.14127C10.2501 4.82053 8.20449 5.34841 6.77645 6.77645C5.34841 8.20449 4.82148 10.2501 5.14127 11.8194L3.77718 14.2889C3.77432 14.2947 3.7705 14.3004 3.76764 14.3071C3.40395 14.98 3.42399 15.7933 3.74855 16.4863C4.66207 18.4384 6.8824 23.1435 6.8824 23.1435C7.36542 23.9759 8.26176 24.4952 9.22015 24.5C9.87594 24.5028 10.4993 24.2709 10.9985 23.8327C11.5894 23.3144 11.8834 22.5326 11.8996 21.747L11.9178 20.8382L13.6055 17.7025L17.7025 13.6055L20.8382 11.9178L21.747 11.8996C22.5336 11.8834 23.3154 11.5904 23.8327 10.9985C24.2709 10.4993 24.5028 9.87499 24.5 9.22015C24.4952 8.26176 23.9759 7.36542 23.1435 6.8824Z" stroke="#FD9B28" stroke-width="1.5" stroke-miterlimit="10" stroke-linecap="round" stroke-linejoin="round"/>
</svg>
