<svg width="28" height="28" viewBox="0 0 28 28" fill="none" xmlns="http://www.w3.org/2000/svg">
<path d="M23.3333 12.25V5.83333C23.3333 4.54417 22.2892 3.5 21 3.5H5.83333C4.54417 3.5 3.5 4.54417 3.5 5.83333V17.5" stroke="#FC63B6" stroke-width="1.5" stroke-linecap="round" stroke-linejoin="round"/>
<path d="M17.5 21H3.50001C2.85601 21 2.33334 20.4773 2.33334 19.8333V18.6667C2.33334 18.0227 2.85601 17.5 3.50001 17.5H17.5" stroke="#FC63B6" stroke-width="1.5" stroke-linecap="round" stroke-linejoin="round"/>
<path d="M24.5 24.5H18.6667C18.0227 24.5 17.5 23.9773 17.5 23.3333V13.4167C17.5 12.7727 18.0227 12.25 18.6667 12.25H24.5C25.144 12.25 25.6667 12.7727 25.6667 13.4167V23.3333C25.6667 23.9773 25.144 24.5 24.5 24.5Z" stroke="#FC63B6" stroke-width="1.5" stroke-linecap="round" stroke-linejoin="round"/>
<path d="M17.5 21H25.6667" stroke="#FC63B6" stroke-width="1.5" stroke-linecap="round" stroke-linejoin="round"/>
</svg>
