<svg width="28" height="28" viewBox="0 0 28 28" fill="none" xmlns="http://www.w3.org/2000/svg">
<path d="M3.62963 19.3265C3.62963 18.3893 4.38926 17.6296 5.32648 17.6296H22.6735C23.6107 17.6296 24.3704 18.3893 24.3704 19.3265C24.3704 19.915 24.233 20.4957 23.9698 21.0233L23.7909 21.3811C23.3515 22.26 22.4544 22.8148 21.4719 22.8148H6.52815C5.54556 22.8148 4.64852 22.26 4.20907 21.3824L4.03019 21.0246C3.76704 20.497 3.62963 19.915 3.62963 19.3265Z" stroke="#FD9B28" stroke-width="1.5" stroke-linecap="round" stroke-linejoin="round"/>
<path d="M23.3333 7.77778C20.6409 5.75815 17.3652 4.66667 14 4.66667C10.6348 4.66667 7.35908 5.75815 4.66667 7.77778C4.01333 8.26778 3.62963 9.03519 3.62963 9.85186V10.5C3.62963 11.5733 4.50074 12.4444 5.57407 12.4444H22.4259C23.4993 12.4444 24.3704 11.5733 24.3704 10.5V9.85186C24.3704 9.03519 23.9867 8.26778 23.3333 7.77778Z" stroke="#FD9B28" stroke-width="1.5" stroke-linecap="round" stroke-linejoin="round"/>
<path d="M23.0741 17.6296H4.92594C3.49353 17.6296 2.33334 16.4694 2.33334 15.037C2.33334 13.6046 3.49353 12.4444 4.92594 12.4444H23.0741C24.5065 12.4444 25.6667 13.6046 25.6667 15.037C25.6667 16.4694 24.5065 17.6296 23.0741 17.6296Z" stroke="#FD9B28" stroke-width="1.5" stroke-linecap="round" stroke-linejoin="round"/>
</svg>
