<svg width="28" height="28" viewBox="0 0 28 28" fill="none" xmlns="http://www.w3.org/2000/svg">
<path d="M18.2292 10.7917C18.2292 8.45834 18.2292 7.29167 10.6458 7.29167C3.0625 7.29167 3.0625 8.45834 3.0625 15.5651C3.0625 22.4583 3.0625 23.625 11.2998 23.625C12.3513 23.625 13.2434 23.5981 14 23.5285M24.0625 6.125L22.8958 10.7917M25.6492 14.2053C25.6492 22.4583 25.6492 23.6078 20.9551 23.625C16.261 23.6422 16.254 22.4583 16.254 14.1575M17.1873 10.7917H24.8383C25.34 10.7917 25.7868 11.1125 25.9455 11.5897L26.334 12.7563C26.5872 13.5112 26.0248 14.2917 25.228 14.2917H16.7988C16.002 14.2917 15.4397 13.5112 15.6917 12.7563L16.0802 11.5897C16.24 11.1125 16.6857 10.7917 17.1873 10.7917ZM6.5625 7.29167H14.7292V5.25C14.7292 2.625 13.5625 2.625 10.6458 2.625C7.72917 2.625 6.5625 2.625 6.5625 5.25V7.29167Z" stroke="#FD9B28" stroke-width="1.5" stroke-linecap="round" stroke-linejoin="round"/>
</svg>
