<svg width="12" height="13" viewBox="0 0 12 13" fill="none" xmlns="http://www.w3.org/2000/svg">
<path d="M7.848 4.056L7.48753 3.7095L7.48744 3.70959L7.848 4.056ZM6.0495 4.75L5.55566 4.82829C5.59417 5.07118 5.80358 5.25 6.0495 5.25V4.75ZM7.848 2.55999L7.48754 2.9065V2.9065L7.848 2.55999ZM4.15199 4.056L4.51254 3.70959L4.51246 3.7095L4.15199 4.056ZM5.95049 4.75V5.25C6.19641 5.25 6.40582 5.07118 6.44432 4.82829L5.95049 4.75ZM5.58999 2.56L5.95046 2.2135L5.95046 2.2135L5.58999 2.56ZM4.152 2.55999L4.51246 2.9065L4.152 2.55999ZM6.5 11.25V4.75H5.5V11.25H6.5ZM7.48744 3.70959C7.08691 4.12647 6.40515 4.25 6.0495 4.25V5.25C6.51584 5.25 7.53109 5.10753 8.20855 4.40241L7.48744 3.70959ZM6.0495 4.75C6.54333 4.67171 6.54334 4.67181 6.54336 4.6719C6.54336 4.67193 6.54338 4.67202 6.54339 4.67207C6.5434 4.67216 6.54341 4.67224 6.54342 4.67228C6.54344 4.67238 6.54344 4.67239 6.54342 4.67231C6.5434 4.67214 6.54332 4.67161 6.54318 4.67073C6.54292 4.66897 6.54244 4.66579 6.54179 4.66128C6.5405 4.65225 6.53851 4.6379 6.53609 4.61882C6.53123 4.58062 6.52469 4.52379 6.51849 4.45304C6.506 4.31061 6.49536 4.11653 6.5017 3.90713C6.50811 3.6957 6.53147 3.48259 6.58069 3.29692C6.63087 3.10758 6.69893 2.98091 6.77046 2.90649L6.04952 2.2135C5.8173 2.45508 5.68843 2.76016 5.61407 3.0407C5.53874 3.3249 5.50995 3.6198 5.50216 3.87687C5.49432 4.13597 5.50746 4.37089 5.5223 4.54033C5.52977 4.62553 5.53777 4.69535 5.54405 4.74482C5.5472 4.76958 5.54992 4.78932 5.55195 4.80342C5.55296 4.81047 5.5538 4.81612 5.55443 4.82029C5.55475 4.82238 5.55501 4.82409 5.55522 4.82543C5.55532 4.8261 5.55541 4.82667 5.55548 4.82715C5.55552 4.82739 5.55556 4.8276 5.55559 4.82779C5.5556 4.82789 5.55562 4.82801 5.55563 4.82806C5.55565 4.82818 5.55566 4.82829 6.0495 4.75ZM8.20846 4.4025C8.7915 3.79596 8.79152 2.82004 8.20847 2.21349L7.48754 2.9065C7.69849 3.12595 7.69849 3.49004 7.48753 3.7095L8.20846 4.4025ZM8.20847 2.21349C7.61474 1.59583 6.64377 1.59583 6.05004 2.21349L6.77097 2.9065C6.97124 2.69816 7.28727 2.69816 7.48754 2.9065L8.20847 2.21349ZM3.79144 4.40241C4.4689 5.10753 5.48415 5.25 5.95049 5.25V4.25C5.59483 4.25 4.91308 4.12647 4.51254 3.70959L3.79144 4.40241ZM5.95049 4.75C6.44432 4.82829 6.44434 4.82818 6.44436 4.82806C6.44437 4.82801 6.44439 4.82789 6.4444 4.82779C6.44443 4.8276 6.44447 4.82739 6.4445 4.82715C6.44458 4.82667 6.44467 4.8261 6.44477 4.82543C6.44498 4.82409 6.44524 4.82238 6.44556 4.82029C6.44619 4.81612 6.44703 4.81047 6.44804 4.80342C6.45006 4.78932 6.45279 4.76958 6.45593 4.74482C6.46221 4.69535 6.47022 4.62553 6.47768 4.54033C6.49253 4.37089 6.50567 4.13597 6.49783 3.87687C6.49004 3.6198 6.46125 3.3249 6.38592 3.0407C6.31156 2.76016 6.18268 2.45508 5.95046 2.2135L5.22952 2.90649C5.30105 2.98091 5.36912 3.10758 5.4193 3.29692C5.46852 3.48259 5.49188 3.6957 5.49828 3.90713C5.50462 4.11653 5.49398 4.31061 5.4815 4.45304C5.4753 4.52379 5.46875 4.58062 5.4639 4.61882C5.46148 4.6379 5.45949 4.65225 5.45819 4.66128C5.45754 4.66579 5.45707 4.66897 5.4568 4.67073C5.45667 4.67161 5.45659 4.67214 5.45656 4.67231C5.45655 4.67239 5.45655 4.67238 5.45657 4.67228C5.45657 4.67223 5.45659 4.67216 5.4566 4.67207C5.45661 4.67202 5.45662 4.67193 5.45663 4.6719C5.45664 4.67181 5.45666 4.67171 5.95049 4.75ZM4.51246 3.7095C4.3015 3.49004 4.3015 3.12596 4.51246 2.9065L3.79153 2.21349C3.20849 2.82003 3.20848 3.79596 3.79152 4.4025L4.51246 3.7095ZM4.51246 2.9065C4.71272 2.69816 5.02926 2.69816 5.22953 2.9065L5.95046 2.2135C5.35673 1.59583 4.38527 1.59583 3.79153 2.21349L4.51246 2.9065ZM6 4.25C5.12424 4.25 4.42207 4.23447 3.82364 4.23048C3.2407 4.22659 2.7538 4.23349 2.36994 4.28583C1.99418 4.33707 1.6205 4.44275 1.35282 4.71747C1.0725 5.00517 1 5.38072 1 5.75H2C2 5.49428 2.05249 5.43233 2.06905 5.41533C2.09825 5.38537 2.19331 5.31917 2.50505 5.27666C2.80869 5.23526 3.22805 5.22653 3.81698 5.23046C4.39043 5.23428 5.12576 5.25 6 5.25V4.25ZM1 5.75C1 6.11928 1.07251 6.49483 1.35282 6.78253C1.6205 7.05725 1.99418 7.16293 2.36994 7.21417C2.7538 7.26651 3.2407 7.27341 3.82365 7.26952C4.42207 7.26553 5.12424 7.25 6 7.25V6.25C5.12576 6.25 4.39043 6.26572 3.81698 6.26954C3.22805 6.27347 2.8087 6.26474 2.50506 6.22334C2.19331 6.18083 2.09825 6.11463 2.06905 6.08466C2.05249 6.06767 2 6.00572 2 5.75H1ZM6 7.25C6.87576 7.25 7.57793 7.26553 8.17635 7.26952C8.7593 7.27341 9.2462 7.26651 9.63006 7.21417C10.0058 7.16293 10.3795 7.05725 10.6472 6.78253C10.9275 6.49483 11 6.11928 11 5.75H10C10 6.00572 9.9475 6.06767 9.93095 6.08466C9.90175 6.11463 9.80668 6.18083 9.49494 6.22334C9.1913 6.26474 8.77195 6.27347 8.18302 6.26954C7.60957 6.26572 6.87424 6.25 6 6.25V7.25ZM11 5.75C11 5.38072 10.9275 5.00517 10.6472 4.71747C10.3795 4.44275 10.0058 4.33707 9.63005 4.28583C9.24619 4.23349 8.7593 4.22659 8.17635 4.23048C7.57793 4.23447 6.87576 4.25 6 4.25V5.25C6.87424 5.25 7.60957 5.23428 8.18302 5.23046C8.77195 5.22653 9.1913 5.23526 9.49494 5.27666C9.80668 5.31917 9.90175 5.38537 9.93095 5.41534C9.9475 5.43233 10 5.49428 10 5.75H11ZM1.75 8.99999C1.75 9.49529 1.76356 9.94565 1.85942 10.3195C1.9628 10.7227 2.16788 11.0617 2.5475 11.299C2.89615 11.5169 3.34847 11.62 3.88476 11.6769C4.42924 11.7346 5.12457 11.75 6 11.75V10.75C5.12542 10.75 4.477 10.7341 3.99023 10.6825C3.49528 10.63 3.22884 10.5456 3.0775 10.451C2.95712 10.3758 2.88094 10.2773 2.82808 10.0711C2.76769 9.83558 2.75 9.50468 2.75 8.99999H1.75ZM6 11.75C6.87542 11.75 7.57075 11.7346 8.11523 11.6769C8.65153 11.62 9.10384 11.5169 9.4525 11.299C9.83211 11.0617 10.0372 10.7227 10.1406 10.3195C10.2364 9.94565 10.25 9.49529 10.25 8.99999H9.25C9.25 9.50468 9.23231 9.83558 9.17192 10.0711C9.11906 10.2773 9.04288 10.3758 8.9225 10.451C8.77115 10.5456 8.50472 10.63 8.00976 10.6825C7.52299 10.7341 6.87457 10.75 6 10.75V11.75ZM2.75 8.99999V6.68405H1.75V8.99999H2.75ZM9.25 6.68405V8.99999H10.25V6.68405H9.25Z" fill="#FC63B6"/>
</svg>
