<svg width="28" height="28" viewBox="0 0 28 28" fill="none" xmlns="http://www.w3.org/2000/svg">
<path d="M16.569 18.6667H15.6707" stroke="#FC636B" stroke-width="1.5" stroke-linecap="round" stroke-linejoin="round"/>
<path d="M11.438 18.6667H12.3363" stroke="#FC636B" stroke-width="1.5" stroke-linecap="round" stroke-linejoin="round"/>
<path d="M19.8403 16.0043H8.16666" stroke="#FC636B" stroke-width="1.5" stroke-linecap="round" stroke-linejoin="round"/>
<path d="M9.33331 24.5L10.5816 22.0033" stroke="#FC636B" stroke-width="1.5" stroke-miterlimit="10" stroke-linecap="round" stroke-linejoin="round"/>
<path d="M18.6666 24.5L17.4183 22.0033" stroke="#FC636B" stroke-width="1.5" stroke-miterlimit="10" stroke-linecap="round" stroke-linejoin="round"/>
<path d="M17.4976 9.33335H10.5035C9.2143 9.33335 8.17014 10.3775 8.17014 11.6667V18.6667C8.17014 20.5998 9.73697 22.1667 11.6701 22.1667H16.3368C18.2711 22.1667 19.838 20.5987 19.8368 18.6643L19.8321 11.6655C19.831 10.3775 18.7856 9.33335 17.4976 9.33335Z" stroke="#FC636B" stroke-width="1.5" stroke-linecap="round" stroke-linejoin="round"/>
<path d="M23.8058 18.5827C26.0096 14.3955 25.3668 9.10468 21.8458 5.58251C17.5128 1.24951 10.4883 1.24951 6.15531 5.58251C2.63431 9.10351 1.99148 14.3955 4.19531 18.5827" stroke="#FC636B" stroke-width="1.5" stroke-miterlimit="10" stroke-linecap="round" stroke-linejoin="round"/>
</svg>
