<svg width="12" height="13" viewBox="0 0 12 13" fill="none" xmlns="http://www.w3.org/2000/svg">
<path d="M2 2.29201V4.52301V4.56801V4.52301C2 5.16001 2.2625 5.72401 2.6695 6.08901C2.8685 6.26751 3 6.50851 3 6.77601V10.5C3 10.914 3.336 11.25 3.75 11.25C4.164 11.25 4.5 10.914 4.5 10.5V6.77601C4.5 6.50851 4.6315 6.26751 4.8305 6.08901C5.2375 5.72401 5.5 5.16001 5.5 4.52301V2.29201V4.52301" stroke="#FD9B28" stroke-linecap="round" stroke-linejoin="round"/>
<path d="M3.75 4.75V2.25" stroke="#FD9B28" stroke-linecap="round" stroke-linejoin="round"/>
<path d="M9.75 2.776C9.75 2.5 9.526 2.276 9.25 2.276H8.75C7.9215 2.276 7.25 2.9475 7.25 3.776V6.776C7.25 7.428 7.6685 7.9775 8.25 8.184V10.5C8.25 10.914 8.586 11.25 9 11.25C9.414 11.25 9.75 10.914 9.75 10.5V8.276V2.776Z" stroke="#FD9B28" stroke-linecap="round" stroke-linejoin="round"/>
</svg>
