<svg width="12" height="13" viewBox="0 0 12 13" fill="none" xmlns="http://www.w3.org/2000/svg">
<path d="M3.27274 5.61363H8.72728" stroke="#FC636B" stroke-miterlimit="10" stroke-linecap="round" stroke-linejoin="round"/>
<path d="M1.74536 4.24917H2.65445L3.27294 5.61366" stroke="#FC636B" stroke-miterlimit="10" stroke-linecap="round" stroke-linejoin="round"/>
<path d="M3.72729 7.88635H6.45457" stroke="#FC636B" stroke-miterlimit="10" stroke-linecap="round" stroke-linejoin="round"/>
<path d="M3.27273 10.1591C4.52792 10.1591 5.54546 9.14155 5.54546 7.88636C5.54546 6.63117 4.52792 5.61363 3.27273 5.61363C2.01753 5.61363 1 6.63117 1 7.88636C1 9.14155 2.01753 10.1591 3.27273 10.1591Z" stroke="#FC636B" stroke-miterlimit="10" stroke-linecap="round" stroke-linejoin="round"/>
<path d="M8.72726 10.1591C9.98245 10.1591 11 9.14155 11 7.88636C11 6.63117 9.98245 5.61363 8.72726 5.61363C7.47206 5.61363 6.45453 6.63117 6.45453 7.88636C6.45453 9.14155 7.47206 10.1591 8.72726 10.1591Z" stroke="#FC636B" stroke-miterlimit="10" stroke-linecap="round" stroke-linejoin="round"/>
<path d="M5.09091 3.3409H6.90909L8.72728 7.88636" stroke="#FC636B" stroke-miterlimit="10" stroke-linecap="round" stroke-linejoin="round"/>
</svg>
